<?xml version="1.0" standalone="no"?>
<!DOCTYPE svg PUBLIC "-//W3C//DTD SVG 20010904//EN"
 "http://www.w3.org/TR/2001/REC-SVG-20010904/DTD/svg10.dtd">
<svg version="1.0" xmlns="http://www.w3.org/2000/svg"
 width="450.000000pt" height="450.000000pt" viewBox="0 0 450.000000 450.000000"
 preserveAspectRatio="xMidYMid meet">
<metadata>
Created by potrace 1.11, written by Peter Selinger 2001-2013
</metadata>
<g transform="translate(0.000000,450.000000) scale(0.100000,-0.100000)"
fill="#000000" stroke="none">
<path d="M10 2250 l0 -2240 2240 0 2240 0 0 2240 0 2240 -2240 0 -2240 0 0
-2240z m2040 2004 c0 -2 -12 -4 -26 -4 -14 0 -23 4 -20 9 6 8 46 4 46 -5z
m359 -7 c11 -9 15 -9 18 1 7 18 26 15 88 -13 37 -16 54 -29 49 -36 -4 -8 -3
-9 5 -5 6 4 17 3 24 -2 16 -13 119 -42 149 -42 26 -1 65 -26 55 -37 -4 -3 -15
1 -25 10 -10 10 -24 17 -30 17 -20 0 -13 -20 11 -30 l22 -9 -23 0 c-13 -1 -36
6 -51 14 -16 8 -46 15 -67 16 -48 1 -136 20 -148 31 -15 13 24 9 77 -7 26 -8
47 -10 47 -6 0 14 -26 21 -128 32 -54 5 -106 13 -117 16 -18 5 -19 4 -5 -12
14 -16 13 -17 -7 -11 -11 4 -46 11 -77 16 -30 5 -64 14 -76 20 -16 9 -20 8
-20 -6 0 -14 -8 -15 -60 -9 -45 5 -67 3 -91 -9 -36 -18 -84 -22 -74 -6 3 6 2
10 -2 10 -5 0 -18 7 -29 15 -17 13 -16 14 19 8 23 -3 37 -2 37 5 0 7 10 8 32
1 43 -12 48 -11 42 4 -3 10 5 12 33 9 21 -2 44 -9 51 -14 8 -8 12 -6 12 5 0
12 7 14 33 10 35 -6 39 -6 139 -1 70 3 70 12 3 29 -21 6 -15 7 20 3 28 -3 56
-11 64 -17z m-524 -32 c-24 -8 -114 -11 -109 -3 3 4 31 8 62 7 31 0 53 -2 47
-4z m24 -57 c13 -22 13 -22 -5 -7 -10 9 -26 19 -34 22 -11 4 -9 6 5 6 11 1 26
-9 34 -21z m593 -43 c15 -7 41 -16 58 -20 16 -4 30 -11 30 -16 0 -5 11 -9 24
-9 35 0 86 -24 78 -36 -11 -18 -62 -23 -90 -8 -14 7 -56 18 -93 24 -38 7 -72
17 -76 22 -4 8 2 9 18 3 13 -4 39 -9 57 -10 27 -2 31 -1 21 11 -6 8 -15 12
-19 9 -4 -2 -15 4 -25 15 -10 11 -24 20 -31 20 -7 0 -16 5 -20 11 -7 13 24 5
68 -16z m379 -35 c18 0 19 -2 9 -15 -11 -13 -16 -13 -41 2 -32 19 -41 40 -10
23 11 -5 30 -10 42 -10z m-568 3 c-7 -2 -19 -2 -25 0 -7 3 -2 5 12 5 14 0 19
-2 13 -5z m525 -49 c36 -15 44 -29 10 -21 -12 4 -27 2 -33 -3 -12 -10 -55 22
-55 41 0 11 21 6 78 -17z m199 -34 l32 -17 -60 -1 c-36 -1 -57 3 -54 9 4 5 -9
16 -27 24 l-33 16 55 -7 c30 -4 69 -14 87 -24z m-442 -1 c17 1 38 -4 48 -11
15 -11 10 -13 -34 -15 -32 -1 -57 4 -66 12 -18 19 -16 29 5 20 9 -4 31 -7 47
-6z m-225 -8 c-14 -4 -43 -11 -65 -14 l-40 -6 35 14 c19 7 49 13 65 13 29 0
29 0 5 -7z m-162 -8 c-10 -2 -26 -2 -35 0 -10 3 -2 5 17 5 19 0 27 -2 18 -5z
m42 -3 c0 -5 -4 -10 -10 -10 -5 0 -10 5 -10 10 0 6 5 10 10 10 6 0 10 -4 10
-10z m180 0 c0 -5 -4 -10 -9 -10 -6 0 -13 5 -16 10 -3 6 1 10 9 10 9 0 16 -4
16 -10z m320 0 l25 -8 -25 -1 c-14 0 -32 4 -40 9 -13 9 -13 10 0 9 8 -1 26 -5
40 -9z m184 -5 c25 -13 84 -25 148 -28 10 -1 20 -7 22 -14 4 -10 -1 -12 -18
-7 -13 3 -27 1 -31 -5 -4 -8 -12 -8 -26 0 -39 20 -115 39 -161 39 -52 0 -74
16 -31 23 54 8 68 7 97 -8z m-536 -34 c9 -5 39 -19 65 -31 26 -12 46 -24 43
-27 -3 -3 -30 7 -62 22 -31 15 -64 25 -74 22 -10 -2 -17 1 -17 9 0 16 20 18
45 5z m-78 -21 c13 -9 13 -10 0 -9 -8 0 -24 4 -35 9 l-20 9 20 0 c11 0 27 -4
35 -9z m525 0 c3 -6 -1 -7 -9 -4 -18 7 -21 14 -7 14 6 0 13 -4 16 -10z m160
-11 c17 -6 15 -8 -10 -8 -16 0 -46 7 -65 14 l-35 14 45 -6 c25 -3 54 -9 65
-14z m210 2 c3 -5 1 -12 -5 -16 -5 -3 -10 1 -10 9 0 18 6 21 15 7z m-629 -59
c-6 -6 -56 10 -56 18 0 5 13 3 30 -3 16 -6 28 -13 26 -15z m517 11 c-7 -2 -19
-2 -25 0 -7 3 -2 5 12 5 14 0 19 -2 13 -5z m227 -13 c0 -6 -11 -8 -27 -4 -40
10 -41 14 -5 14 18 0 32 -5 32 -10z m-1915 -30 c-3 -5 -12 -10 -18 -10 -7 0
-6 4 3 10 19 12 23 12 15 0z m1735 -10 c13 -8 13 -10 -2 -10 -9 0 -20 5 -23
10 -8 13 5 13 25 0z m-280 -14 c0 -9 -30 -14 -35 -6 -4 6 3 10 14 10 12 0 21
-2 21 -4z m480 -6 c0 -5 -7 -7 -15 -4 -8 4 -15 2 -15 -4 0 -5 11 -12 24 -16
12 -3 47 -30 77 -59 30 -30 61 -56 69 -60 11 -4 10 -6 -5 -6 -18 -1 -18 -3 5
-21 14 -11 31 -20 38 -20 6 0 12 -4 12 -10 0 -5 8 -10 18 -10 14 0 15 -2 2
-10 -17 -11 -20 -39 -5 -59 8 -12 6 -13 -8 -8 -32 12 -37 -2 -11 -28 14 -14
28 -25 33 -25 4 0 16 -7 27 -16 18 -15 18 -15 -3 -9 -33 9 -28 -4 18 -51 38
-39 39 -41 15 -37 -30 6 -33 -3 -9 -29 12 -13 13 -18 3 -18 -9 0 -8 -6 5 -20
9 -10 15 -26 12 -34 -3 -8 -1 -16 5 -18 6 -2 12 -23 13 -47 1 -23 7 -46 14
-50 8 -5 5 -15 -12 -33 -20 -22 -21 -27 -10 -45 14 -21 7 -117 -8 -107 -4 2
-3 -9 3 -27 8 -24 8 -33 -1 -39 -7 -4 -11 -20 -10 -36 3 -31 -18 -94 -31 -94
-4 0 -5 -11 -3 -24 4 -18 0 -26 -17 -31 -20 -6 -22 -12 -17 -50 4 -28 2 -45
-5 -47 -6 -2 -14 -29 -18 -59 -6 -46 -4 -56 12 -67 16 -12 18 -23 13 -89 -2
-42 -7 -78 -10 -81 -5 -5 -10 81 -6 102 1 5 -7 6 -17 4 -35 -10 -46 7 -49 78
-2 61 -1 65 13 48 14 -18 15 -16 11 19 -2 30 0 36 12 32 12 -5 11 -2 -2 13
-18 19 -23 42 -9 42 4 0 18 -7 30 -16 l23 -16 -20 38 c-24 45 -26 55 -8 48 17
-6 15 59 -2 80 -13 16 -21 107 -8 99 13 -8 7 25 -8 41 -8 8 -15 21 -15 28 0
11 2 11 9 0 6 -11 10 -11 18 0 24 31 22 61 -7 105 -31 45 -41 72 -15 37 12
-16 16 -17 24 -5 7 12 13 12 24 3 12 -10 15 -8 15 14 0 18 -9 31 -29 43 -15 9
-34 26 -40 38 -7 13 -20 25 -31 29 -30 9 -21 26 11 19 26 -5 28 -4 24 18 -6
32 13 44 27 17 6 -11 14 -20 18 -20 14 0 6 69 -10 87 -17 19 -58 90 -58 99 0
4 7 4 14 1 11 -4 13 -1 9 10 -5 13 -2 15 12 10 15 -6 16 -5 5 8 -7 8 -19 15
-26 15 -8 0 -14 4 -14 9 0 5 -20 31 -44 58 -81 87 -115 127 -112 131 2 1 21
-8 41 -23 54 -36 72 -33 44 6 -18 26 -19 33 -8 40 10 6 6 11 -18 20 -18 6 -33
14 -33 19 0 12 -48 59 -54 53 -3 -4 -6 1 -6 10 0 12 9 17 30 17 17 0 30 -4 30
-10z m155 0 c29 -7 28 -8 -10 -8 -22 0 -62 3 -90 8 l-50 7 60 0 c33 1 74 -3
90 -7z m-178 -80 c14 -11 22 -20 17 -20 -12 1 -61 39 -51 40 5 0 20 -9 34 -20z
m41 -159 c-1 -9 4 -27 11 -41 l14 -25 -22 19 c-11 11 -21 14 -21 8 0 -6 8 -17
18 -24 11 -7 24 -30 31 -50 7 -21 17 -40 22 -43 5 -4 9 -11 9 -18 0 -8 -3 -8
-12 1 -17 17 -31 15 -24 -4 3 -9 2 -12 -5 -9 -6 4 -8 13 -5 21 3 8 1 14 -5 14
-5 0 -21 12 -34 28 -15 16 -24 21 -25 13 0 -8 7 -19 17 -26 11 -8 14 -18 9
-31 -7 -18 -8 -18 -19 2 -7 12 -16 19 -22 18 -5 -2 -11 10 -11 27 -1 17 -7 35
-15 40 -9 7 -5 8 14 3 32 -7 34 0 7 44 -22 36 -16 40 19 16 19 -14 25 -14 32
-3 5 8 4 18 -1 23 -15 15 -12 26 5 19 9 -3 15 -13 13 -22z m-2120 -1 c-14 -22
-40 -23 -44 -2 -1 7 0 8 3 2 2 -5 9 -10 14 -10 6 0 8 4 4 9 -3 5 3 12 12 14
10 3 19 5 21 6 1 0 -3 -8 -10 -19z m2042 -40 c0 -5 -2 -10 -4 -10 -3 0 -8 5
-11 10 -3 6 -1 10 4 10 6 0 11 -4 11 -10z m-2080 -30 c0 -5 -4 -10 -10 -10 -5
0 -10 5 -10 10 0 6 5 10 10 10 6 0 10 -4 10 -10z m45 -26 c-16 -9 -41 -17 -53
-18 -13 -2 -28 -9 -32 -16 -5 -8 -15 -10 -26 -6 -18 7 -18 8 0 22 11 8 32 14
47 14 15 0 31 5 34 10 3 6 18 10 33 10 l27 0 -30 -16z m2169 -6 c20 -22 58
-88 49 -87 -9 0 -76 99 -67 99 3 0 11 -6 18 -12z m-251 -149 c26 -42 47 -79
47 -83 0 -3 15 -27 34 -53 52 -74 71 -134 58 -183 -10 -41 -10 -41 12 -27 21
14 23 13 33 -14 14 -36 4 -74 -19 -75 -70 -3 -71 -3 -58 -19 12 -14 15 -14 30
0 21 19 36 20 21 1 -9 -11 -9 -16 1 -23 17 -11 41 -53 34 -61 -3 -3 -6 -1 -6
4 0 5 -9 10 -20 11 -11 1 -20 -4 -20 -10 0 -28 13 -57 25 -57 8 0 16 -14 20
-30 4 -17 11 -28 16 -24 5 3 9 -4 9 -16 0 -14 -4 -19 -12 -14 -8 5 -9 2 -4
-11 30 -78 53 -565 29 -610 -6 -11 -14 -39 -18 -62 -6 -41 -6 -43 18 -43 32 0
53 21 62 62 7 31 7 31 20 9 12 -23 12 -22 19 18 3 22 3 59 0 81 -5 32 -3 40 8
40 13 0 15 -13 12 -67 -4 -81 -23 -204 -34 -218 -3 -5 -17 -38 -29 -72 -26
-70 -49 -99 -49 -61 1 13 -5 38 -13 56 -11 26 -11 36 -1 53 12 19 11 20 -10
17 -24 -3 -26 -18 -16 -148 3 -39 0 -45 -17 -45 -21 0 -32 -28 -34 -85 -1 -19
-6 -42 -11 -50 -9 -13 -11 -13 -20 0 -5 8 -8 26 -5 40 3 14 8 52 11 85 3 33 9
66 13 73 9 16 -3 117 -18 155 -6 15 -16 27 -22 27 -7 0 -21 7 -31 16 -15 14
-18 15 -23 2 -4 -11 -17 -13 -58 -7 -54 6 -86 19 -149 58 -36 21 -38 26 -38
72 0 45 11 62 25 39 4 -6 16 -5 33 2 15 6 37 10 50 9 12 0 22 4 22 9 0 6 -4
10 -10 10 -18 0 -10 18 10 23 11 3 18 1 14 -4 -3 -5 0 -9 5 -9 6 0 11 7 11 15
0 8 8 16 18 16 28 2 36 4 65 19 38 19 59 0 32 -30 -22 -24 -14 -27 10 -4 12
13 19 14 28 5 17 -17 29 -13 22 9 -4 14 -2 20 9 20 17 0 39 34 29 44 -3 3 -2
6 3 6 13 0 16 145 5 205 -6 31 -6 54 0 61 6 8 4 14 -6 18 -19 7 -20 36 0 36
20 0 -16 61 -57 95 -16 14 -27 29 -24 33 5 9 -19 24 -58 37 -11 3 -61 10 -110
16 -50 5 -110 13 -133 16 -43 5 -55 16 -30 27 6 3 2 3 -11 0 -15 -4 -32 3 -53
20 -29 24 -36 26 -120 23 -63 -3 -98 0 -116 10 -21 11 -33 11 -55 2 -17 -7
-58 -10 -102 -7 -63 4 -73 3 -68 -10 3 -8 1 -13 -4 -10 -5 3 -67 2 -139 -3
-71 -4 -173 -11 -225 -14 -61 -4 -111 -13 -139 -26 -24 -10 -52 -19 -62 -19
-11 0 -19 -4 -19 -10 0 -5 6 -10 12 -10 7 0 2 -7 -10 -16 -12 -8 -26 -13 -31
-9 -5 3 -12 -3 -16 -14 -3 -10 -24 -31 -46 -47 -23 -16 -36 -30 -31 -32 13 -4
-16 -72 -31 -72 -5 0 -17 -10 -27 -22 -13 -17 -16 -28 -9 -46 12 -31 12 -32
-6 -32 -9 0 -12 -6 -9 -15 4 -8 1 -15 -4 -15 -6 0 -9 -10 -7 -22 8 -40 -48
-69 -77 -40 -6 6 -18 12 -25 12 -7 0 -17 9 -23 19 -12 24 -13 71 -2 71 5 0 9
6 10 13 7 77 16 100 46 113 27 11 28 13 9 14 -13 0 -23 4 -23 9 0 5 8 7 19 4
26 -7 36 56 12 74 -13 10 -9 12 27 11 34 -1 42 -5 42 -20 0 -13 8 -18 30 -18
22 0 30 5 30 18 0 13 -2 14 -9 3 -16 -26 -21 7 -6 43 17 41 28 48 19 12 -8
-34 11 -41 45 -17 28 20 55 73 44 85 -4 3 -1 6 5 6 23 0 12 18 -15 25 -18 4
-23 9 -14 14 6 4 11 14 9 22 -2 9 4 13 16 11 25 -5 66 17 66 35 0 15 -5 16
-28 4 -16 -8 -17 -4 -16 37 2 65 2 65 24 59 10 -3 25 2 31 9 7 8 18 13 25 10
16 -6 26 32 13 56 -11 20 -18 22 -38 9 -7 -5 -10 -14 -7 -20 10 -16 -7 -14
-30 4 -24 18 -34 19 -34 1 0 -8 -5 -18 -11 -22 -8 -4 -9 0 -4 15 5 17 2 21
-14 21 -24 0 -41 -28 -44 -70 -2 -29 -26 -48 -46 -36 -16 10 -23 59 -10 67 10
6 10 16 2 43 -7 24 -8 36 -1 36 6 0 7 7 4 16 -5 12 -2 15 10 10 11 -4 15 -2
11 7 -2 7 14 37 37 66 42 56 41 55 171 90 21 5 34 4 43 -5 7 -7 18 -11 25 -9
23 8 111 20 170 24 9 0 17 7 17 15 0 10 7 12 22 8 12 -3 17 -7 10 -10 -6 -2
-12 -8 -12 -14 0 -6 7 -7 16 -4 26 10 35 -4 17 -28 -12 -15 -24 -21 -40 -18
-16 3 -23 0 -23 -12 0 -11 -9 -16 -26 -16 -14 0 -23 -4 -20 -9 8 -13 -47 -21
-61 -9 -9 7 -13 7 -13 -1 0 -6 -7 -11 -15 -11 -9 0 -18 -7 -21 -15 -4 -8 -12
-15 -20 -15 -10 0 -13 -7 -9 -22 6 -26 -10 -51 -40 -62 -19 -7 -19 -8 -2 -21
10 -7 28 -11 40 -9 12 2 16 2 10 -2 -7 -3 -13 -12 -13 -20 0 -8 -8 -15 -17
-15 -10 -1 0 -5 22 -8 28 -4 43 -2 48 7 5 7 20 17 33 22 13 5 24 17 24 27 0
13 -3 14 -12 5 -15 -15 -28 -16 -28 -2 0 6 8 13 18 17 9 3 29 15 44 25 28 20
58 24 58 8 0 -5 -9 -10 -20 -10 -11 0 -20 -5 -20 -11 0 -7 11 -8 31 -4 22 5
34 3 40 -6 6 -10 9 -11 9 -1 0 7 12 11 28 11 23 -2 24 -2 5 -6 -19 -4 -35 -33
-18 -33 15 0 75 30 75 38 0 4 19 7 43 7 23 -1 54 4 69 12 15 7 38 13 51 13 14
0 27 7 31 15 3 8 11 14 18 13 7 -2 12 3 10 10 -1 6 7 12 19 12 13 0 18 -4 13
-12 -5 -8 -2 -9 12 -4 10 5 39 10 64 12 25 3 72 11 105 20 33 8 101 18 150 20
83 5 88 4 69 -10 -14 -10 -37 -14 -63 -12 -23 2 -44 0 -46 -4 -7 -11 5 -41 14
-36 3 2 13 -11 22 -29 8 -18 11 -31 5 -29 -6 2 -11 -7 -11 -21 0 -25 3 -26 50
-24 52 2 203 -23 250 -41 38 -14 42 -13 53 19 9 25 7 30 -14 41 -13 7 -21 16
-19 20 3 4 -4 10 -15 13 -11 3 -20 11 -20 19 0 7 -9 19 -20 25 -16 11 -18 10
-14 -2 5 -12 0 -12 -28 2 -18 9 -38 24 -44 32 -7 9 -30 36 -53 60 -32 34 -45
41 -53 33 -15 -15 -75 -15 -84 0 -4 7 -3 8 5 4 8 -6 10 0 5 18 -5 22 -4 25 12
19 12 -4 15 -3 10 6 -6 9 -2 12 10 11 36 -4 49 1 83 30 18 17 42 30 53 30 13
0 20 9 24 30 4 16 10 27 15 24 5 -2 14 4 20 15 12 18 14 17 39 -17 14 -21 47
-71 73 -113z m-1913 117 c0 -2 -7 -6 -15 -10 -8 -3 -15 -1 -15 4 0 6 7 10 15
10 8 0 15 -2 15 -4z m-57 -27 c-28 -10 -39 -29 -13 -22 11 3 20 1 20 -5 0 -13
-25 -33 -33 -26 -3 3 -11 3 -17 -1 -8 -5 -6 -13 6 -26 10 -11 12 -19 6 -19
-19 0 -14 -20 6 -21 9 0 2 -5 -17 -11 -24 -6 -31 -12 -22 -18 10 -6 8 -13 -10
-31 -24 -24 -41 -11 -19 16 9 11 10 15 1 15 -7 0 -9 5 -6 10 3 6 1 10 -6 10
-8 0 -8 4 1 15 7 8 20 15 29 15 13 0 14 2 2 9 -21 14 -26 61 -6 61 8 0 15 6
15 14 0 16 48 36 69 28 10 -4 9 -7 -6 -13z m118 -62 c-10 -9 -11 -8 -5 6 3 10
9 15 12 12 3 -3 0 -11 -7 -18z m2147 1 c7 -7 12 -16 12 -20 0 -15 -15 -8 -28
12 -13 22 -3 27 16 8z m-2253 -8 c-3 -5 -12 -10 -18 -10 -7 0 -6 4 3 10 19 12
23 12 15 0z m2122 -52 c-3 -7 -5 -2 -5 12 0 14 2 19 5 13 2 -7 2 -19 0 -25z
m93 1 c0 -12 7 -19 20 -19 11 0 20 -4 20 -10 0 -14 -26 -12 -38 3 -16 20 -26
61 -13 53 6 -4 11 -16 11 -27z m-1190 -3 c0 -3 -4 -8 -10 -11 -5 -3 -10 -1
-10 4 0 6 5 11 10 11 6 0 10 -2 10 -4z m13 -37 c14 -1 -22 -17 -40 -18 -7 -1
-10 6 -6 15 3 8 12 13 20 10 8 -3 20 -6 26 -7z m-1048 -18 c3 -6 -5 -15 -17
-22 -45 -24 -60 -52 -35 -63 6 -3 2 -3 -10 -1 -12 3 -24 1 -28 -5 -8 -13 -25
-13 -25 0 0 6 7 10 15 10 8 0 15 5 15 10 0 6 -5 10 -10 10 -6 0 -5 8 2 19 7
11 16 18 20 15 4 -3 18 4 30 15 24 23 34 26 43 12z m50 -41 c-19 -21 -45 -27
-45 -11 0 10 52 40 59 34 2 -1 -4 -12 -14 -23z m1115 -30 c15 -10 14 -11 -30
-16 -101 -13 -144 -15 -138 -9 5 5 38 14 75 21 38 6 70 12 73 13 3 0 12 -4 20
-9z m-1200 -50 c0 -12 -40 -34 -48 -26 -3 4 3 13 14 21 22 17 34 19 34 5z m0
-45 c0 -8 -4 -15 -10 -15 -5 0 -10 7 -10 15 0 8 5 15 10 15 6 0 10 -7 10 -15z
m1880 -5 c0 -5 -7 -7 -15 -4 -8 4 -12 10 -9 15 6 11 24 2 24 -11z m70 -20 c0
-5 -2 -10 -4 -10 -3 0 -8 5 -11 10 -3 6 -1 10 4 10 6 0 11 -4 11 -10z m-1777
-44 c-9 -21 -21 -32 -29 -29 -10 3 -6 13 14 33 34 37 35 37 15 -4z m487 14 c0
-5 -4 -10 -10 -10 -5 0 -10 5 -10 10 0 6 5 10 10 10 6 0 10 -4 10 -10z m-557
-35 c-10 -13 -22 -25 -27 -25 -5 0 1 11 14 25 30 32 36 32 13 0z m-93 -24 c0
-5 -7 -12 -16 -15 -14 -5 -15 -4 -4 9 14 17 20 19 20 6z m-17 -78 c-4 -10 -13
-24 -20 -31 -20 -21 -17 7 4 30 20 23 24 23 16 1z m-23 -117 l-32 -31 28 44
c16 24 30 38 32 31 3 -7 -10 -26 -28 -44z m0 -59 c0 -19 -10 -27 -26 -20 -11
4 -12 9 -3 19 15 18 29 18 29 1z m17 -75 c24 -28 22 -39 -11 -51 -15 -6 -32
-2 -58 13 -35 19 -40 20 -65 6 -34 -19 -67 -82 -67 -131 -1 -21 -4 -41 -8 -45
-5 -4 -9 -21 -9 -38 -1 -23 -4 -18 -10 19 -11 63 17 166 57 209 56 60 129 68
171 18z m81 -127 c-3 -3 -9 2 -12 12 -6 14 -5 15 5 6 7 -7 10 -15 7 -18z
m1395 -27 c39 -19 57 -73 57 -174 0 -77 3 -92 29 -138 16 -28 32 -72 35 -97 5
-30 15 -54 31 -69 27 -26 33 -60 11 -60 -8 0 -18 4 -21 10 -3 5 -22 17 -42 27
-20 9 -38 25 -41 35 -5 21 -52 25 -53 6 0 -10 -2 -10 -6 0 -6 14 -39 16 -48 2
-7 -11 -98 -14 -108 -4 -3 4 0 21 8 40 8 19 9 34 4 36 -5 2 -12 21 -16 42 -4
29 -2 42 9 50 11 8 15 32 15 101 -1 86 7 122 41 183 14 25 53 29 95 10z
m-1263 -168 c5 15 8 18 9 8 1 -9 6 -18 12 -20 6 -2 5 -13 -5 -32 -10 -19 -13
-48 -11 -83 2 -31 0 -53 -6 -53 -6 0 -7 -4 -4 -10 3 -5 -3 -26 -14 -47 l-19
-38 -7 28 c-4 16 -3 33 5 42 14 17 10 57 -7 62 -6 2 -14 -5 -18 -17 -3 -11
-11 -17 -17 -14 -12 8 -3 92 14 129 13 30 32 34 23 5 -3 -11 -2 -20 4 -20 17
0 22 17 11 44 -5 14 -6 34 -3 43 5 13 9 9 16 -17 10 -34 10 -34 17 -10z m476
-74 c-5 -19 -2 -23 17 -23 46 -1 58 -3 53 -12 -7 -11 17 -21 50 -21 16 0 27
-8 33 -23 5 -13 24 -30 43 -37 75 -28 96 -41 101 -60 4 -15 0 -20 -15 -20 -10
0 -16 -4 -13 -10 3 -5 -4 -12 -17 -14 -13 -3 -36 -8 -53 -11 -16 -3 -48 -8
-70 -10 -22 -2 -53 -10 -69 -19 -16 -8 -34 -12 -41 -9 -7 2 -29 0 -49 -5 -24
-7 -38 -7 -42 0 -4 6 -10 5 -15 -3 -8 -12 -11 -11 -19 1 -14 21 -12 50 4 81
21 41 28 80 16 94 -8 9 -8 15 0 20 21 13 10 24 -16 15 -31 -12 -34 -12 -34 -1
0 5 9 13 20 16 11 3 20 13 20 20 0 15 64 54 89 55 9 0 11 -7 7 -24z m-1298
-141 c2 -25 -1 -35 -12 -35 -29 0 -45 47 -30 89 8 25 40 -15 42 -54z m580 -2
c21 -22 66 -43 90 -43 9 0 23 -9 29 -20 7 -10 28 -22 47 -26 52 -9 64 -29 30
-50 -24 -16 -27 -16 -38 -2 -7 10 -30 18 -56 19 -45 4 -45 4 -48 -31 -2 -19
-10 -39 -18 -43 -8 -5 -12 -12 -9 -18 4 -5 1 -9 -4 -9 -6 0 -11 7 -11 15 0 8
-7 15 -15 15 -8 0 -15 8 -15 18 0 14 2 15 10 2 5 -8 10 -11 10 -5 0 5 -14 22
-32 36 -29 25 -30 28 -15 44 22 22 68 30 78 13 4 -7 10 -10 14 -7 10 11 -41
74 -63 77 -12 2 -22 10 -22 18 0 19 16 18 38 -3z m1284 -55 c13 -13 29 -23 37
-23 8 0 16 -5 18 -11 4 -12 -20 -23 -72 -33 -26 -5 -31 -3 -41 23 -8 24 -7 33
5 47 21 23 27 23 53 -3z m-751 -41 c-1 -12 -15 -9 -19 4 -3 6 1 10 8 8 6 -3
11 -8 11 -12z m389 -1 c0 -3 -4 -8 -10 -11 -5 -3 -10 -1 -10 4 0 6 5 11 10 11
6 0 10 -2 10 -4z m-334 -43 c-10 -10 -19 5 -10 18 6 11 8 11 12 0 2 -7 1 -15
-2 -18z m-333 -72 c11 -42 -82 -134 -97 -95 -3 8 -14 14 -25 14 -25 0 -51 10
-51 20 0 24 40 50 77 50 24 0 46 6 53 15 17 21 37 19 43 -4z m-706 -33 c-3 -8
-6 -5 -6 6 -1 11 2 17 5 13 3 -3 4 -12 1 -19z m730 -30 c-3 -8 -6 -5 -6 6 -1
11 2 17 5 13 3 -3 4 -12 1 -19z m156 -11 c-18 -11 -25 -5 -17 16 4 13 9 14 19
4 11 -10 10 -14 -2 -20z m-146 -39 c-3 -7 -5 -2 -5 12 0 14 2 19 5 13 2 -7 2
-19 0 -25z m-84 -138 c-5 -72 -4 -82 13 -95 10 -9 14 -14 8 -13 -7 2 -12 -1
-12 -7 0 -5 4 -9 9 -7 5 1 9 -4 9 -10 0 -9 4 -8 10 2 8 12 10 11 10 -7 0 -14
6 -23 16 -23 32 0 54 -98 42 -197 -3 -27 -14 -30 -22 -5 -3 9 -3 -2 0 -24 3
-23 1 -45 -4 -48 -14 -9 -2 -56 21 -79 l21 -21 -22 -9 c-26 -12 -28 -26 -7
-53 17 -22 20 -54 5 -54 -5 0 -10 -7 -10 -15 0 -8 -7 -15 -16 -15 -11 0 -15
-6 -11 -20 3 -11 1 -22 -4 -25 -4 -3 -4 -18 2 -33 6 -14 7 -28 2 -29 -29 -11
-35 -21 -24 -42 10 -17 9 -21 -4 -21 -8 0 -15 7 -15 15 0 18 -12 19 -28 3 -9
-9 -18 -5 -40 22 l-29 34 -6 -39 -6 -39 117 -112 c64 -61 144 -134 177 -161
33 -28 76 -67 95 -88 19 -20 58 -53 85 -73 28 -20 67 -51 89 -69 21 -17 50
-35 65 -38 14 -3 40 -17 56 -31 l30 -25 -40 19 c-22 11 -51 23 -65 27 -14 4
-35 16 -47 27 l-22 20 -31 -36 c-18 -20 -39 -36 -47 -36 -10 0 -12 -6 -8 -20
3 -11 3 -20 -2 -20 -8 0 -9 -10 -14 -80 l-2 -29 -211 0 c-180 0 -213 2 -228
16 -10 9 -18 11 -18 5 0 -6 6 -13 13 -15 6 -3 -15 -6 -49 -6 -60 -1 -60 -1
-79 36 -10 21 -20 33 -22 26 -2 -6 3 -23 13 -37 l16 -26 -546 0 -546 0 0 174
c0 169 1 174 23 188 71 47 341 179 392 192 33 8 90 23 128 32 64 16 67 18 67
46 0 16 9 50 19 76 49 121 113 286 147 380 23 66 44 108 58 117 33 21 217 55
336 62 l109 6 5 46 c3 25 9 105 13 176 4 72 8 133 9 138 1 4 2 12 3 17 0 6 3
10 6 10 2 0 2 -36 -2 -80z m-673 51 c0 -6 -4 -13 -10 -16 -5 -3 -10 1 -10 9 0
9 5 16 10 16 6 0 10 -4 10 -9z m1748 -222 c2 -5 10 -9 18 -9 8 0 14 -4 14 -10
0 -15 -68 -12 -73 3 -3 9 -9 9 -26 -1 -17 -10 -21 -10 -21 2 0 8 -7 17 -16 20
-8 3 -13 10 -10 15 7 10 110 -7 114 -20z m357 -19 c0 -20 -6 -26 -30 -28 -45
-6 -134 18 -128 34 6 16 34 22 103 20 52 -1 55 -3 55 -26z m505 -1 c0 -5 -4
-9 -10 -9 -5 0 -10 7 -10 16 0 8 5 12 10 9 6 -3 10 -10 10 -16z m-1140 -260
c0 -5 -4 -9 -9 -9 -5 0 -17 -3 -27 -7 -12 -4 -15 -3 -10 5 4 7 2 12 -3 12 -6
0 -11 -7 -11 -15 0 -8 -4 -15 -10 -15 -17 0 -11 18 11 33 21 15 59 12 59 -4z
m50 11 c0 -5 -4 -10 -9 -10 -6 0 -13 5 -16 10 -3 6 1 10 9 10 9 0 16 -4 16
-10z m-99 -63 c-10 -9 -11 -8 -5 6 3 10 9 15 12 12 3 -3 0 -11 -7 -18z m246 8
c0 -8 -4 -15 -9 -15 -10 0 -11 14 -1 23 9 10 10 9 10 -8z m33 -5 c0 -5 -2 -10
-4 -10 -3 0 -8 5 -11 10 -3 6 -1 10 4 10 6 0 11 -4 11 -10z m-160 -20 c0 -5
-5 -10 -11 -10 -5 0 -7 5 -4 10 3 6 8 10 11 10 2 0 4 -4 4 -10z m94 1 c3 -5
-3 -11 -14 -14 -24 -6 -60 2 -60 14 0 12 67 12 74 0z m425 -21 c11 -24 11 -24
-3 -6 -9 11 -16 24 -16 30 0 12 5 7 19 -24z m-304 10 c7 -12 -2 -12 -30 0 -19
8 -19 9 2 9 12 1 25 -3 28 -9z m-238 -42 c-3 -8 -6 -5 -6 6 -1 11 2 17 5 13 3
-3 4 -12 1 -19z m53 12 c0 -5 -4 -10 -10 -10 -5 0 -10 5 -10 10 0 6 5 10 10
10 6 0 10 -4 10 -10z m-123 -32 c-3 -8 -6 -5 -6 6 -1 11 2 17 5 13 3 -3 4 -12
1 -19z m80 -70 c-3 -8 -6 -5 -6 6 -1 11 2 17 5 13 3 -3 4 -12 1 -19z m-100 -3
c0 -8 -4 -15 -9 -15 -4 0 -8 7 -8 15 0 8 4 15 8 15 5 0 9 -7 9 -15z m860 -17
c-3 -8 -6 -5 -6 6 -1 11 2 17 5 13 3 -3 4 -12 1 -19z m7 -225 c24 -49 55 -121
70 -162 22 -61 40 -89 113 -170 48 -53 96 -101 108 -108 12 -7 62 -19 111 -27
91 -15 259 -85 399 -166 l60 -35 -202 -3 c-112 -1 -293 -1 -403 0 l-200 3 35
40 c51 58 55 63 55 75 0 5 4 10 9 10 10 0 -9 59 -24 76 -25 26 -48 25 -88 -7
-21 -17 -51 -32 -66 -34 -15 -1 -33 -5 -39 -9 -7 -4 -16 -5 -21 -1 -5 3 -12 1
-16 -5 -4 -6 -11 -8 -16 -4 -5 3 -16 0 -24 -6 -8 -6 -20 -8 -26 -4 -18 11 18
34 53 34 15 0 28 4 28 9 0 5 6 8 13 8 6 -1 31 7 53 16 36 16 42 23 47 55 10
74 -2 138 -48 256 -25 66 -50 126 -56 132 -15 18 4 114 22 114 5 0 29 -39 53
-87z m-184 -542 c0 -5 -8 -11 -17 -15 -10 -3 -24 -9 -30 -12 -7 -3 -13 -1 -13
5 0 7 10 16 23 21 29 12 37 12 37 1z m-774 -16 c4 -8 11 -15 16 -15 11 0 47
-40 48 -53 0 -4 -10 1 -22 13 -12 11 -26 20 -31 20 -10 0 -36 30 -37 43 0 13
21 7 26 -8z m704 -26 c0 -5 -7 -9 -15 -9 -15 0 -20 12 -9 23 8 8 24 -1 24 -14z
m-792 -31 c6 -6 12 -16 12 -24 0 -11 -5 -11 -27 1 -16 8 -37 17 -48 20 -16 5
-17 8 -5 15 16 10 47 4 68 -12z m742 -12 c0 -3 -4 -8 -10 -11 -5 -3 -10 -1
-10 4 0 6 5 11 10 11 6 0 10 -2 10 -4z m-826 -32 c3 -8 2 -12 -4 -9 -6 3 -10
10 -10 16 0 14 7 11 14 -7z m190 0 c3 -8 2 -12 -4 -9 -6 3 -10 10 -10 16 0 14
7 11 14 -7z m606 12 c0 -11 -19 -15 -25 -6 -3 5 1 10 9 10 9 0 16 -2 16 -4z
m-540 -16 c0 -5 -2 -10 -4 -10 -3 0 -8 5 -11 10 -3 6 -1 10 4 10 6 0 11 -4 11
-10z"/>
<path d="M2491 4216 c12 -10 60 -16 54 -6 -3 5 -18 10 -32 10 -15 0 -24 -2
-22 -4z"/>
<path d="M2978 3213 c7 -3 16 -2 19 1 4 3 -2 6 -13 5 -11 0 -14 -3 -6 -6z"/>
<path d="M3000 3191 c0 -8 27 -22 50 -26 3 0 32 -14 66 -31 59 -29 60 -30 56
-8 -3 17 -13 24 -43 29 -21 4 -39 10 -39 14 0 4 -17 13 -39 19 -46 14 -51 15
-51 3z"/>
<path d="M2064 3062 c-7 -5 -6 -14 1 -29 7 -13 15 -20 20 -15 4 4 5 -1 2 -11
-6 -16 -4 -16 23 -2 16 8 36 15 45 15 8 0 15 5 15 10 0 9 -34 14 -77 13 -7 -1
-11 3 -8 7 7 12 -9 20 -21 12z"/>
<path d="M2050 2971 c0 -11 -59 -35 -78 -32 -8 1 -12 -5 -10 -16 4 -22 21 -21
107 5 41 12 60 22 52 26 -7 5 -18 3 -24 -3 -17 -17 -27 -13 -27 9 0 11 -4 20
-10 20 -5 0 -10 -4 -10 -9z"/>
<path d="M2487 2968 c-7 -4 1 -8 18 -8 17 0 37 5 45 10 11 7 6 9 -18 7 -19 -1
-39 -5 -45 -9z"/>
<path d="M1885 2913 c-42 -6 -53 -20 -13 -16 18 1 27 0 21 -3 -20 -9 -15 -23
6 -17 12 3 19 13 18 24 -1 10 -1 18 -2 18 0 -1 -13 -4 -30 -6z"/>
<path d="M2608 2843 c6 -2 18 -2 25 0 6 3 1 5 -13 5 -14 0 -19 -2 -12 -5z"/>
<path d="M2238 2813 c7 -3 16 -2 19 1 4 3 -2 6 -13 5 -11 0 -14 -3 -6 -6z"/>
<path d="M2330 2810 c0 -5 5 -10 11 -10 5 0 7 5 4 10 -3 6 -8 10 -11 10 -2 0
-4 -4 -4 -10z"/>
<path d="M1535 2390 c-3 -5 1 -10 10 -10 9 0 13 5 10 10 -3 6 -8 10 -10 10 -2
0 -7 -4 -10 -10z"/>
<path d="M1562 2325 c0 -16 2 -22 5 -12 2 9 2 23 0 30 -3 6 -5 -1 -5 -18z"/>
<path d="M3446 1874 c-8 -22 -8 -44 2 -44 4 0 16 14 25 30 18 29 18 30 -1 30
-11 0 -23 -7 -26 -16z"/>
<path d="M1870 2144 c0 -8 5 -12 10 -9 6 4 8 11 5 16 -9 14 -15 11 -15 -7z"/>
<path d="M1873 2093 c9 -2 23 -2 30 0 6 3 -1 5 -18 5 -16 0 -22 -2 -12 -5z"/>
<path d="M2105 2030 c3 -5 8 -10 11 -10 2 0 4 5 4 10 0 6 -5 10 -11 10 -5 0
-7 -4 -4 -10z"/>
<path d="M1218 1265 c-3 -3 -29 -6 -59 -8 -30 -2 -59 -5 -64 -8 -6 -4 -54 -14
-108 -24 -57 -11 -101 -24 -104 -31 -8 -21 17 -84 33 -84 8 0 14 -4 14 -10 0
-13 78 -117 149 -198 l55 -64 44 49 c96 104 95 103 108 286 l7 97 -35 0 c-19
0 -37 -2 -40 -5z m-165 -112 c-7 -2 -19 -2 -25 0 -7 3 -2 5 12 5 14 0 19 -2
13 -5z m-76 -9 c-3 -3 -12 -4 -19 -1 -8 3 -5 6 6 6 11 1 17 -2 13 -5z m3 -34
c0 -5 -8 -10 -17 -10 -15 0 -16 2 -3 10 19 12 20 12 20 0z"/>
<path d="M1160 490 c49 -44 90 -73 90 -63 0 4 -15 18 -33 30 -17 12 -45 32
-62 43 -25 18 -24 16 5 -10z"/>
<path d="M1131 388 c45 -40 69 -58 75 -58 13 0 -10 21 -54 50 -29 19 -37 22
-21 8z"/>
<path d="M1285 390 c10 -11 20 -20 23 -20 3 0 -3 9 -13 20 -10 11 -20 20 -23
20 -3 0 3 -9 13 -20z"/>
<path d="M1270 277 c0 -2 23 -23 50 -46 28 -23 50 -39 50 -34 -1 8 -100 88
-100 80z"/>
<path d="M1205 185 c66 -53 169 -127 156 -111 -17 21 -169 136 -179 136 -4 0
7 -11 23 -25z"/>
<path d="M1310 190 c0 -5 5 -10 11 -10 5 0 7 5 4 10 -3 6 -8 10 -11 10 -2 0
-4 -4 -4 -10z"/>
<path d="M1018 140 c9 -16 18 -25 20 -20 4 12 -17 50 -28 50 -5 0 -1 -13 8
-30z"/>
<path d="M1160 90 c0 -5 5 -10 11 -10 5 0 7 5 4 10 -3 6 -8 10 -11 10 -2 0 -4
-4 -4 -10z"/>
<path d="M2916 623 c9 -21 18 -44 21 -50 5 -13 23 -18 23 -7 0 8 -51 94 -56
94 -2 0 3 -17 12 -37z"/>
<path d="M2976 470 c3 -14 11 -32 16 -40 6 -10 7 -7 2 10 -3 14 -11 32 -16 40
-6 10 -7 7 -2 -10z"/>
</g>
</svg>
